# AST/ASF file generated using VICON BodyLanguage
# -----------------------------------------------
:version 1.10
:name VICON
:units
  mass 1.0
  length 0.45
  angle deg
:documentation
   .ast/.asf automatically generated from VICON data using
   VICON BodyBuilder and BodyLanguage model FoxedUp or BRILLIANT.MOD
:root
   order TX TY TZ RX RY RZ
   axis XYZ
   position 0 0 0  
   orientation 0 0 0 
:bonedata
  begin
     id 1 
     name lhipjoint
     direction 0.707368 -0.647095 0.284426 
     length 2.60678 
     axis 0 0 0  XYZ
  end
  begin
     id 2 
     name lfemur
     direction 0.34202 -0.939693 0  
     length 6.63812  
     axis 0 0 20  XYZ
    dof rx ry rz
    limits (-160.0 20.0)
           (-70.0 70.0)
           (-60.0 70.0)
  end
  begin
     id 3 
     name ltibia
     direction 0.34202 -0.939693 0   
     length 7.51178   
     axis 0 0 20   XYZ
    dof rx
    limits (-10.0 170.0)
  end
  begin
     id 4 
     name lfoot
     direction 0.121251 -0.333133 0.935051   
     length 1.83716   
     axis -90 7.62852e-016 20   XYZ
    dof rx rz
    limits (-45.0 90.0)
           (-70.0 20.0)
  end
  begin
     id 5 
     name ltoes
     direction 1.53611e-011 -4.21962e-011 1   
     length 0.916133   
     axis -90 7.62852e-016 20   XYZ
    dof rx
    limits (-90.0 20.0)
  end
  begin
     id 6 
     name rhipjoint
     direction -0.692419 -0.660507 0.290321   
     length 2.55385  
     axis 0 0 0  XYZ 
  end
  begin
     id 7 
     name rfemur
     direction -0.34202 -0.939693 0   
     length 7.29079   
     axis 0 0 -20   XYZ
    dof rx ry rz
    limits (-160.0 20.0)
           (-70.0 70.0)
           (-70.0 60.0)
  end
  begin
     id 8 
     name rtibia
     direction -0.34202 -0.939693 0   
     length 7.47143   
     axis 0 0 -20   XYZ
    dof rx
    limits (-10.0 170.0)
 end
 begin
     id 9 
     name rfoot
     direction -0.119907 -0.329441 0.936532   
     length 1.79439  
     axis -90 -7.62852e-016 -20   XYZ
    dof rx rz
    limits (-45.0 90.0)
           (-20.0 70.0)
  end
  begin
     id 10 
     name rtoes
     direction -1.53571e-011 -4.21961e-011 1   
     length 0.896039   
     axis -90 -7.62852e-016 -20   XYZ
    dof rx
    limits (-90.0 20.0)
  end
  begin
     id 11 
     name lowerback
     direction 0.0367721 0.992912 -0.113016   
     length 1.73542   
     axis 0 0 0   XYZ
    dof rx ry rz
    limits (-20.0 45.0)
           (-30.0 30.0)
           (-30.0 30.0)
  end
  begin
     id 12 
     name upperback
     direction -0.000314626 0.990678 0.136227   
     length 1.7514   
     axis 0 0 0   XYZ
    dof rx ry rz
    limits (-20.0 45.0)
           (-30.0 30.0)
           (-30.0 30.0)
  end
  begin
     id 13 
     name thorax
     direction -0.0226159 0.981151 0.191917   
     length 1.71471   
     axis 0 0 0   XYZ
    dof rx ry rz
    limits (-20.0 45.0)
           (-30.0 30.0)
           (-30.0 30.0)
  end
  begin
     id 14 
     name lowerneck
     direction 0.0219333 0.998071 0.0580739   
     length 1.65882   
     axis 0 0 0   XYZ
    dof rx ry rz
    limits (-20.0 45.0)
           (-30.0 30.0)
           (-30.0 30.0)
  end
  begin
     id 15 
     name upperneck
     direction 0.0384529 0.980058 -0.194957   
     length 1.6612   
     axis 0 0 0   XYZ
    dof rx ry rz
    limits (-20.0 45.0)
           (-30.0 30.0)
           (-30.0 30.0)
  end
  begin
     id 16
     name head
     direction 0.00592123 0.997421 -0.0715234  
     length 1.68077  
     axis 0 0 0   XYZ
    dof rx ry rz
    limits (-20.0 45.0)
           (-30.0 30.0)
           (-30.0 30.0)
  end
  begin
     id 17 
     name lclavicle
     direction 0.904803 0.417826 0.0821728  
     length 3.42227  
     axis 0 0 0   XYZ
    dof ry rz
    limits (-20.0 10.0)
           (0.0 20.0)
  end
  begin
     id 18 
     name lhumerus
     direction 1 -4.48965e-011 -2.68786e-027   
     length 5.11878   
     axis -180 -30 -90   XYZ
    dof rx ry rz
    limits (-60.0 90.0)
           (-90.0 90.0)
           (-90.0 90.0)
  end
  begin
     id 19
     name lradius
     direction 1 -4.48965e-011 2.61168e-028   
     length 3.59971   
     axis -180 -30 -90   XYZ
    dof rx
    limits (-10.0 170.0)
  end
  begin
     id 20
     name lwrist
     direction 1 -4.48965e-011 1.58672e-027   
     length 1.79985   
     axis -1.65735e-015 90 90   XYZ
    dof ry
    limits (-180.0 0.0)
 end
  begin
     id 21 
     name lhand
     direction 1 -4.48942e-011 3.17344e-027   
     length 0.62877   
     axis -2.02492e-015 90 90   XYZ
    dof rx rz
    limits (-90.0 90.0)
           (-45.0 45.0)
  end
  begin
     id 22 
     name lfingers
     direction 1 -4.49011e-011 6.34687e-027   
     length 0.506931   
     axis -4.04985e-015 90 90   XYZ
    dof rx
    limits (0.0 90.0)
  end
  begin
     id 23
     name lthumb
     direction 0.707107 -6.34982e-011 0.707107   
     length 0.727854   
     axis -90 45 2.85299e-015   XYZ
    dof rx rz
    limits (-45.0 45.0)
           (-45.0 45.0)
  end
  begin
     id 24 
     name rclavicle
     direction -0.945647 0.32488 0.0143075   
     length 3.52737  
     axis 0 0 0   XYZ 
    dof ry rz
    limits (-10.0 20.0)
           (-20.0 0.0)
  end
  begin
     id 25 
     name rhumerus
     direction -1 -4.48962e-011 1.92182e-027  
     length 5.4902   
     axis -180 30 90   XYZ
    dof rx ry rz
    limits (-90.0 60.0)
           (-90.0 90.0)
           (-90.0 90.0)
  end
  begin
     id 26 
     name rradius
     direction -1 -4.48967e-011 -5.97193e-028   
     length 3.20659   
     axis -180 30 90   XYZ
    dof rx
    limits (-10.0 170.0)
  end
  begin
     id 27 
     name rwrist
     direction -1 -4.48964e-011 1.58672e-027   
     length 1.6033   
     axis -1.65735e-015 -90 -90   XYZ
    dof ry
    limits (-180.0 0.0)
  end
  begin
     id 28
     name rhand
     direction -1 -4.49006e-011 3.17344e-027   
     length 0.691885   
     axis -2.02492e-015 -90 -90   XYZ
    dof rx rz
    limits (-90.0 90.0)
           (-45.0 45.0)
  end
  begin
     id 29
     name rfingers
     direction -1 -4.48908e-011 6.34687e-027   
     length 0.557815   
     axis -4.04985e-015 -90 -90   XYZ
    dof rx
    limits (0.0 90.0)
  end
  begin
     id 30
     name rthumb
     direction -0.707107 -6.34999e-011 0.707107   
     length 0.800915   
     axis -90 -45 -2.85299e-015   XYZ
    dof rx rz
    limits (-45.0 45.0)
           (-45.0 45.0)
  end
:hierarchy
  begin
    root lhipjoint rhipjoint lowerback
    lhipjoint lfemur
    lfemur ltibia
    ltibia lfoot
    lfoot ltoes
    rhipjoint rfemur
    rfemur rtibia
    rtibia rfoot
    rfoot rtoes
    lowerback upperback
    upperback thorax
    thorax lowerneck lclavicle rclavicle
    lowerneck upperneck
    upperneck head
    lclavicle lhumerus
    lhumerus lradius
    lradius lwrist
    lwrist lhand lthumb
    lhand lfingers
    rclavicle rhumerus
    rhumerus rradius
    rradius rwrist
    rwrist rhand rthumb
    rhand rfingers
  end

#!OML:ASF I:\Actors\actors\Patient Classification 1\Patient 1\Session 1\Subject1.ASF
:FULLY-SPECIFIED
:DEGREES
65
root 0.214952 17.4904 8.32561 9.5585 -3.24756 -7.4335
lowerback -1.4301 0.714402 4.61028
upperback -10.0372 1.28575 1.81556
thorax -9.78231 0.331372 -0.726234
lowerneck -5.5111 -11.349 -8.71931
upperneck 27.59 -15.8483 2.94791
head 10.7226 -7.95364 0.660813
rclavicle 2.73329e-015 -6.55989e-015
rhumerus -44.9381 -19.0469 -72.8781
rradius 25.8936
rwrist 38.8838
rhand 8.5374 -34.3994
rfingers 7.12502
rthumb 33.7378 -61.241
lclavicle 2.73329e-015 -6.55989e-015
lhumerus -47.0727 18.1298 75.5539
lradius 24.7024
lwrist -20.1056
lhand -13.766 -12.4672
lfingers 7.12502
lthumb 12.3547 17.1478
rfemur -3.82044 28.2717 21.3148
rtibia 1.64166
rfoot -12.1895 -26.6503
rtoes 1.60746
lfemur 5.46713 -44.9217 -14.0363
ltibia -4.84159
lfoot -27.442 57.0847
ltoes 19.98
66
root 0.215927 17.4906 8.32358 9.53984 -3.22692 -7.4943
lowerback -1.38227 0.711861 4.64298
upperback -10.0398 1.28867 1.83563
thorax -9.81409 0.330448 -0.723753
lowerneck -5.49357 -11.3522 -8.71742
upperneck 27.574 -15.8651 2.98805
head 10.7178 -7.95746 0.673634
rclavicle -1.29707e-014 -3.57812e-015
rhumerus -44.9672 -19.0181 -72.8689
rradius 25.9084
rwrist 38.854
rhand 8.5479 -34.3643
rfingers 7.12502
rthumb 33.7478 -61.2037
lclavicle -1.29707e-014 -3.57812e-015
lhumerus -47.1006 18.0909 75.5901
lradius 24.719
lwrist -20.1003
lhand -13.8513 -12.3692
lfingers 7.12502
lthumb 12.2725 17.2507
rfemur -3.79382 28.2351 21.3983
rtibia 1.64317
rfoot -12.1635 -26.6132
rtoes 1.70366
lfemur 5.46393 -44.8167 -13.9563
ltibia -4.85401
lfoot -27.2518 57.0059
ltoes 19.9835
67
root 0.216525 17.4904 8.32271 9.52063 -3.20479 -7.53436
lowerback -1.36393 0.695894 4.64453
upperback -10.033 1.26997 1.85882
thorax -9.81888 0.322322 -0.698856
lowerneck -5.53776 -11.342 -8.72774
upperneck 27.6034 -15.8602 3.03119
head 10.7419 -7.95003 0.686624
rclavicle -7.95139e-016 -1.98785e-016
rhumerus -44.9711 -18.9034 -72.9221
rradius 25.9452
rwrist 38.7622
rhand 8.61806 -34.4724
rfingers 7.12502
rthumb 33.8145 -61.2971
lclavicle -7.95139e-016 -1.98785e-016
lhumerus -47.1303 18.0671 75.6202
lradius 24.7492
lwrist -20.0737
lhand -13.9045 -12.1452
lfingers 7.12502
lthumb 12.2212 17.4778
rfemur -3.76972 28.1221 21.4543
rtibia 1.64901
rfoot -12.1361 -26.5145
rtoes 1.4917
lfemur 5.4854 -44.819 -13.936
ltibia -4.83987
lfoot -27.2084 57.003
ltoes 19.928
68
root 0.216843 17.4903 8.3215 9.51576 -3.19099 -7.55165
lowerback -1.34435 0.699996 4.63682
upperback -10.0398 1.27683 1.85811
thorax -9.83788 0.325914 -0.696001
lowerneck -5.5589 -11.3406 -8.74028
upperneck 27.6226 -15.8726 3.0885
head 10.7604 -7.94992 0.704277
rclavicle -3.23025e-015 -2.38542e-015
rhumerus -45.0132 -18.8202 -72.956
rradius 26.0014
rwrist 38.662
rhand 8.66027 -34.5649
rfingers 7.12502
rthumb 33.8546 -61.3808
lclavicle -3.23025e-015 -2.38542e-015
lhumerus -47.1466 18.0042 75.646
lradius 24.7521
lwrist -20.0509
lhand -13.9475 -11.8487
lfingers 7.12502
lthumb 12.1798 17.7767
rfemur -3.76211 28.1066 21.4745
rtibia 1.63839
rfoot -12.1229 -26.517
rtoes 1.04824
lfemur 5.47731 -44.8069 -13.9115
ltibia -4.83439
lfoot -27.3122 56.9721
ltoes 19.9768
69
root 0.216701 17.4902 8.31947 9.53043 -3.17232 -7.58627
lowerback -1.32575 0.729637 4.65084
upperback -10.0598 1.31842 1.84059
thorax -9.86921 0.343519 -0.725476
lowerneck -5.5286 -11.3528 -8.81139
upperneck 27.6403 -15.922 3.22385
head 10.7842 -7.96525 0.755384
rclavicle 1.52567e-014 -1.37161e-014
rhumerus -45.0879 -18.8777 -72.9226
rradius 26.0405
rwrist 38.6477
rhand 8.66582 -34.4974
rfingers 7.12502
rthumb 33.8598 -61.3121
lclavicle 1.52567e-014 -1.37161e-014
lhumerus -47.1393 17.9938 75.5777
lradius 24.6519
lwrist -20.1779
lhand -13.9541 -11.8153
lfingers 7.12502
lthumb 12.1734 17.8105
rfemur -3.7802 28.1734 21.5094
rtibia 1.63524
rfoot -12.1316 -26.5943
rtoes 0.925353
lfemur 5.41746 -44.7484 -13.8138
ltibia -4.84144
lfoot -27.1731 56.9386
ltoes 19.865
